<?xml version="1.0" encoding="iso-8859-1"?>
<!-- Uploaded to: SVG Repo, www.svgrepo.com, Generator: SVG Repo Mixer Tools -->
<svg fill="#000000" height="800px" width="800px" version="1.1" id="Capa_1" xmlns="http://www.w3.org/2000/svg" xmlns:xlink="http://www.w3.org/1999/xlink" 
	 viewBox="0 0 485.9 485.9" xml:space="preserve">
<g>
	<g>
		<circle cx="100" cy="170.9" r="16.6"/>
		<path d="M377.7,241.2H108.3c-7.5,0-13.5,6-13.5,13.5s6,13.5,13.5,13.5h25.9v204.2c0,7.5,6,13.5,13.5,13.5h190.6
			c7.5,0,13.5-6,13.5-13.5V268.2h25.9c7.5,0,13.5-6,13.5-13.5S385.2,241.2,377.7,241.2z M324.8,458.9H161.2V268.2h163.6V458.9z"/>
		<path d="M423.7,84.5h-52.8v-71c0-7.5-6-13.5-13.5-13.5H128.6c-7.5,0-13.5,6-13.5,13.5v71H62.3c-22.5,0-40.8,18.3-40.8,40.8v196.5
			c0,22.5,18.3,40.8,40.8,40.8h25.5c7.5,0,13.5-6,13.5-13.5s-6-13.5-13.5-13.5H62.3c-7.6,0-13.8-6.2-13.8-13.8V125.3
			c0-7.6,6.2-13.8,13.8-13.8h97.9H243c7.5,0,13.5-6,13.5-13.5s-6-13.5-13.5-13.5h-82.8h-18.1V27.1h201.7v71c0,7.5,6,13.5,13.5,13.5
			h66.3c7.6,0,13.8,6.2,13.8,13.8v196.5c0,7.6-6.2,13.8-13.8,13.8h-22c-7.5,0-13.5,6-13.5,13.5s6,13.5,13.5,13.5h22
			c22.5,0,40.8-18.3,40.8-40.8V125.3C464.5,102.8,446.2,84.5,423.7,84.5z"/>
	</g>
</g>
</svg>